<svg width="175" height="38" viewBox="0 0 175 38" fill="none" xmlns="http://www.w3.org/2000/svg">
<path d="M44.621 32.8296C44.4465 32.7098 44.2647 32.6223 44.0856 32.5652C43.9083 32.5108 43.66 32.4454 43.3479 32.3735C42.9417 32.2712 42.6177 32.1495 42.3887 32.0141C42.169 31.8823 42.0222 31.7376 41.9576 31.58C41.8902 31.415 41.8551 31.251 41.8551 31.0842C41.8551 30.723 41.9696 30.4382 42.1994 30.2419C42.4312 30.0401 42.758 29.9378 43.1762 29.9378C43.515 29.9378 43.792 30.0005 43.9988 30.1249C44.201 30.2474 44.3524 30.4419 44.4502 30.7054L44.4705 30.7607L44.8989 30.6981L44.8768 30.6179C44.682 29.9147 44.1114 29.5581 43.1771 29.5581C42.6287 29.5581 42.1902 29.6954 41.8735 29.9617C41.555 30.2336 41.3925 30.6151 41.3925 31.099C41.3925 31.5302 41.5393 31.8814 41.8265 32.144C42.108 32.3984 42.5586 32.6029 43.1697 32.7476C43.6553 32.8674 43.9499 32.9494 44.044 32.9918C44.1391 33.0342 44.2305 33.0895 44.3228 33.1568C44.5998 33.3642 44.7337 33.6581 44.7337 34.0544C44.7337 34.4507 44.6016 34.7824 44.3404 34.999C44.0763 35.2211 43.6803 35.3335 43.1688 35.3335C42.7672 35.3335 42.4441 35.2589 42.205 35.1087C41.9686 34.9612 41.796 34.7299 41.6944 34.4184L41.6741 34.3585L41.2356 34.4313L41.2559 34.5087C41.3556 34.9105 41.567 35.2165 41.8892 35.4165C42.2031 35.6137 42.6343 35.7132 43.1725 35.7132C43.9 35.7132 44.4456 35.5234 44.7946 35.152C45.066 34.8525 45.2036 34.4737 45.2036 34.0231C45.2036 33.7761 45.1537 33.5466 45.054 33.3402C44.9543 33.131 44.8103 32.9614 44.6303 32.8343L44.6229 32.8315L44.621 32.8296Z" fill="white"/>
<path d="M48.469 35.6515H51.9052V35.2746H48.9251V32.7818H51.4842V32.403H48.9251V29.995H51.9246V29.6162H48.469V35.6524V35.6515Z" fill="white"/>
<path d="M58.6096 32.3929C58.8635 32.1063 58.9909 31.7275 58.9909 31.2713C58.9909 30.7626 58.834 30.359 58.5275 30.0724C58.3557 29.9102 58.1434 29.7932 57.8997 29.7213C57.6578 29.6512 57.3494 29.6162 56.9829 29.6162H55.179V35.6524H55.6323V32.9301H57.2017L58.5321 35.6524H59.0251L57.6569 32.8822C58.0557 32.8223 58.3742 32.6583 58.6087 32.3938L58.6096 32.3929ZM55.6323 29.995H56.9626C57.2414 29.995 57.4732 30.0171 57.655 30.0622C57.8323 30.1074 57.9818 30.1793 58.1037 30.2843C58.3825 30.4991 58.5247 30.8354 58.5247 31.2815C58.5247 31.6731 58.4102 31.9846 58.1886 32.2113C58.0363 32.3606 57.8618 32.4555 57.668 32.4933C57.4658 32.5329 57.2516 32.5532 57.0328 32.5532H55.6323V29.995Z" fill="white"/>
<path d="M64.0169 34.7917L62.3053 29.666L62.2905 29.6162H61.8169L63.8424 35.6524H64.1739L66.1994 29.6162H65.7258L64.0169 34.7917Z" fill="white"/>
<path d="M69.8056 29.6162H69.3523V35.6524H69.8056V29.6162Z" fill="white"/>
<path d="M74.6385 37.3519H75.0272L75.7399 36.1326H75.162L74.6385 37.3519Z" fill="white"/>
<path d="M76.787 34.1732C76.7667 34.54 76.6329 34.8192 76.3734 35.0256C76.114 35.233 75.765 35.3399 75.3348 35.3399C74.8261 35.3399 74.4476 35.2007 74.2131 34.9289C73.974 34.6524 73.8521 34.2055 73.8521 33.6V31.6702C73.8521 31.0648 73.974 30.6178 74.2131 30.3413C74.4495 30.0667 74.8335 29.9303 75.357 29.9303C75.7752 29.9303 76.1094 30.0299 76.3513 30.2243C76.5932 30.4188 76.7224 30.6851 76.7501 31.0417L76.7547 31.1118L77.196 31.0998V31.0251C77.1785 30.5634 77.0068 30.2004 76.68 29.9377C76.3587 29.6806 75.9128 29.5516 75.3598 29.5516C74.6923 29.5516 74.1808 29.746 73.8401 30.1275C73.6832 30.2999 73.5687 30.5137 73.5013 30.7607C73.4339 31.0021 73.4016 31.3145 73.4016 31.6878V33.5852C73.4016 33.929 73.4293 34.2211 73.481 34.4478C73.5336 34.6801 73.6232 34.8791 73.7451 35.0413C73.9094 35.2606 74.131 35.4302 74.4051 35.5472C74.6766 35.6643 74.9905 35.7214 75.3394 35.7214C75.6884 35.7214 75.9875 35.6717 76.2313 35.5767C76.475 35.48 76.6726 35.3546 76.8194 35.21C76.9662 35.0625 77.0732 34.8985 77.1333 34.7215C77.1933 34.5474 77.2283 34.3723 77.2357 34.2008V34.129L76.7944 34.1041L76.7898 34.1787L76.787 34.1741V34.1732Z" fill="white"/>
<path d="M84.3517 30.1921C83.9704 29.7655 83.4174 29.5489 82.7093 29.5489C82.0566 29.5489 81.5304 29.736 81.1417 30.1074C80.9275 30.3193 80.7881 30.5589 80.7281 30.8179C80.6681 31.0695 80.6385 31.3238 80.6385 31.5782V33.6895C80.6385 34.2931 80.778 34.7594 81.0568 35.0755C81.4381 35.5022 81.9938 35.7187 82.7084 35.7187C83.3537 35.7187 83.8772 35.5317 84.2659 35.1603C84.4801 34.9483 84.6176 34.7087 84.6795 34.447C84.7395 34.1954 84.769 33.9383 84.769 33.6895V31.5782C84.769 31.1791 84.7266 30.8852 84.6398 30.6778C84.5548 30.476 84.4579 30.311 84.3508 30.1912L84.3517 30.1921ZM84.3148 31.6206V33.6498C84.3148 34.0009 84.2825 34.2636 84.2179 34.4276C84.1532 34.5926 84.0757 34.7271 83.9834 34.8313C83.699 35.1704 83.2706 35.34 82.7075 35.34C82.1896 35.34 81.776 35.1925 81.4787 34.9013C81.3439 34.7622 81.2442 34.5926 81.1851 34.4027C81.1232 34.2083 81.09 33.9539 81.09 33.6498V31.6206C81.09 31.2694 81.1251 31.005 81.1925 30.84C81.2599 30.6732 81.3374 30.5359 81.4214 30.4382C81.7058 30.0991 82.1388 29.9295 82.7075 29.9295C83.218 29.9295 83.627 30.0788 83.9234 30.3682C84.0581 30.5073 84.1579 30.675 84.2197 30.864C84.2816 31.0556 84.3148 31.3128 84.3148 31.6215V31.6187V31.6206Z" fill="white"/>
<path d="M91.3828 32.8296C91.2083 32.7098 91.0265 32.6223 90.8474 32.5652C90.6701 32.5108 90.4236 32.4454 90.1097 32.3735C89.7035 32.2712 89.3794 32.1514 89.1505 32.0141C88.9289 31.8823 88.784 31.7376 88.7184 31.58C88.651 31.415 88.6169 31.251 88.6169 31.0842C88.6169 30.7174 88.7295 30.4437 88.9603 30.2419C89.192 30.0401 89.5179 29.9378 89.938 29.9378C90.2768 29.9378 90.5528 30.0005 90.7596 30.1249C90.9618 30.2474 91.1142 30.4419 91.2111 30.7054L91.2314 30.7607L91.6598 30.6981L91.6367 30.6179C91.4428 29.9147 90.8714 29.5581 89.938 29.5581C89.3896 29.5581 88.9511 29.6954 88.6344 29.9617C88.315 30.2336 88.1534 30.6151 88.1534 31.099C88.1534 31.5302 88.3002 31.8814 88.5873 32.144C88.868 32.3984 89.3194 32.6029 89.9297 32.7476C90.4153 32.8674 90.7098 32.9494 90.804 32.9918C90.8991 33.0342 90.9914 33.0895 91.0837 33.1568C91.3597 33.3642 91.4945 33.6581 91.4945 34.0544C91.4945 34.4507 91.3625 34.7824 91.1012 34.999C90.8363 35.2211 90.4411 35.3335 89.9297 35.3335C89.5281 35.3335 89.205 35.2589 88.9658 35.1087C88.7295 34.9612 88.5568 34.7299 88.4553 34.4184L88.435 34.3585L87.9965 34.4313L88.0168 34.5087C88.1156 34.9105 88.3279 35.2165 88.6492 35.4165C88.9631 35.6137 89.3942 35.7132 89.9324 35.7132C90.6599 35.7132 91.2056 35.5234 91.5545 35.152C91.826 34.8525 91.9626 34.4737 91.9626 34.0231C91.9626 33.7761 91.9127 33.5466 91.8112 33.3402C91.7087 33.131 91.5665 32.9614 91.3874 32.8343L91.3819 32.8315L91.3828 32.8296Z" fill="white"/>
<path d="M99.3217 29.6162H98.8684V35.6524H99.3217V29.6162Z" fill="white"/>
<path d="M106.847 34.7945L103.478 29.6162H103.066V35.6524H103.52V30.4742L106.889 35.6524H107.3V29.6162H106.847V34.7945Z" fill="white"/>
<path d="M110.532 29.995H112.304V35.6515H112.76V29.995H114.522V29.6162H110.532V29.995Z" fill="white"/>
<path d="M117.753 35.6515H121.186V35.2746H118.207V32.7818H120.768V32.403H118.207V29.995H121.209V29.6162H117.754V35.6524L117.753 35.6515Z" fill="white"/>
<path d="M124.904 29.6162H124.451V35.6524H127.947V35.2755H124.904V29.6162Z" fill="white"/>
<path d="M131.212 29.6162H130.759V35.6524H131.212V29.6162Z" fill="white"/>
<path d="M136.986 32.9468H138.451V33.755C138.451 34.084 138.418 34.3282 138.354 34.4802C138.288 34.6351 138.211 34.7622 138.119 34.8618C137.984 35.0166 137.805 35.1364 137.585 35.2156C137.364 35.2977 137.109 35.3382 136.833 35.3382C136.29 35.3382 135.889 35.1991 135.638 34.9217C135.385 34.6424 135.256 34.1982 135.256 33.5974V31.6676C135.256 31.0622 135.381 30.6152 135.627 30.3387C135.872 30.0641 136.265 29.9277 136.802 29.9277C137.225 29.9277 137.569 30.0273 137.821 30.2245C138.072 30.4217 138.208 30.688 138.232 31.0373L138.237 31.1073L138.691 31.0944V31.0198C138.667 30.5581 138.485 30.195 138.148 29.9323C137.816 29.6752 137.357 29.5462 136.792 29.5462C136.117 29.5462 135.601 29.7407 135.253 30.1222C135.095 30.2945 134.978 30.5065 134.909 30.7479C134.84 30.9875 134.804 31.3018 134.804 31.6805V33.578C134.804 34.0093 134.842 34.3208 134.916 34.5355C134.991 34.7447 135.076 34.9125 135.168 35.0341C135.34 35.2507 135.571 35.423 135.858 35.54C136.142 35.6543 136.471 35.7142 136.832 35.7142C137.513 35.7142 138.043 35.5299 138.41 35.1659C138.582 34.9991 138.708 34.7973 138.786 34.5623C138.863 34.3328 138.903 34.0489 138.903 33.7172V32.5625H136.984V32.9412L136.987 32.9458L136.986 32.9468Z" fill="white"/>
<path d="M142.393 35.6515H145.83V35.2746H142.85V32.7818H145.409V32.403H142.85V29.995H145.85V29.6162H142.393V35.6524V35.6515Z" fill="white"/>
<path d="M152.871 34.7945L149.502 29.6162H149.091V35.6524H149.547V30.4742L152.916 35.6524H153.324V29.6162H152.871V34.7945Z" fill="white"/>
<path d="M156.558 29.995H158.33V35.6515H158.783V29.995H160.545V29.6162H156.558V29.995Z" fill="white"/>
<path d="M163.777 35.6515H167.213V35.2746H164.233V32.7818H166.792V32.403H164.233V29.995H167.234V29.6162H163.777V35.6524V35.6515Z" fill="white"/>
<path d="M173.894 33.3356C173.792 33.1264 173.65 32.9568 173.47 32.8296C173.295 32.7098 173.113 32.6223 172.934 32.5652C172.757 32.5108 172.511 32.4454 172.197 32.3735C171.791 32.2712 171.466 32.1495 171.238 32.0141C171.018 31.8823 170.871 31.7376 170.806 31.58C170.738 31.415 170.704 31.251 170.704 31.0842C170.704 30.723 170.818 30.4382 171.047 30.2419C171.28 30.0401 171.606 29.9378 172.025 29.9378C172.364 29.9378 172.64 30.0005 172.848 30.1249C173.049 30.2474 173.201 30.4419 173.298 30.7054L173.318 30.7607L173.747 30.6981L173.724 30.6179C173.53 29.9147 172.958 29.5581 172.025 29.5581C171.477 29.5581 171.038 29.6954 170.721 29.9617C170.403 30.2336 170.241 30.6151 170.241 31.099C170.241 31.5302 170.387 31.8814 170.674 32.144C170.955 32.3984 171.407 32.6029 172.017 32.7476C172.502 32.8674 172.797 32.9494 172.891 32.9918C172.986 33.0342 173.078 33.0895 173.171 33.1568C173.448 33.3642 173.582 33.6581 173.582 34.0544C173.582 34.4507 173.45 34.7824 173.188 34.999C172.923 35.2211 172.528 35.3335 172.017 35.3335C171.615 35.3335 171.292 35.2589 171.053 35.1087C170.817 34.9612 170.644 34.7299 170.542 34.4184L170.522 34.3585L170.083 34.4313L170.104 34.5087C170.204 34.9105 170.415 35.2165 170.736 35.4165C171.05 35.6137 171.481 35.7132 172.019 35.7132C172.747 35.7132 173.293 35.5234 173.642 35.152C173.913 34.8525 174.051 34.4737 174.051 34.0231C174.051 33.7761 174 33.5466 173.901 33.3402L173.894 33.3374V33.3356Z" fill="white"/>
<path d="M41.2328 3.99404V23.3431H45.5756V0C43.1789 0 41.2328 1.78783 41.2328 3.99404Z" fill="white"/>
<path d="M63.8601 16.4822L53.6188 4.38027C53.6188 4.38027 50.1401 4.38027 50.0386 7.49146V23.3423H54.3814V11.2413L64.6226 23.3432H68.2056V4.3775H63.8628V16.4794L63.8601 16.4822Z" fill="white"/>
<path d="M71.9233 7.43155H78.4043V23.3404H82.7471V7.43155H89.1912V4.3775H76.0123C73.755 4.3775 71.9261 5.74602 71.9261 7.43155H71.9233Z" fill="white"/>
<path d="M92.9127 7.33933V23.3431H108.157V20.2891H97.2555V15.273H102.221C103.351 15.273 104.265 14.5902 104.265 13.7451C104.265 12.9 103.35 12.2172 102.221 12.2172H97.2555V7.43241H108.232V4.37836H96.1319C94.352 4.37836 92.9117 5.70448 92.9117 7.34025L92.9127 7.33933Z" fill="white"/>
<path d="M116.336 4.3775C113.938 4.3775 111.993 5.8308 111.993 7.62324V23.3423H127.461V20.2882H116.337V4.3775H116.336Z" fill="white"/>
<path d="M131.165 7.62416V23.3432H135.508V4.3775C133.111 4.3775 131.165 5.8308 131.165 7.62324V7.62416Z" fill="white"/>
<path d="M154.546 6.41684V4.38019H143.801C141.544 4.38019 139.715 5.7487 139.715 7.43424H149.015L139.078 21.3056V23.3422H154.995V20.2882H144.61L154.547 6.41684H154.546Z" fill="white"/>
<path d="M173.881 7.43155V4.3775H161.781C160.001 4.3775 158.561 5.70363 158.561 7.3394V23.3432H173.805V20.2892H162.903V15.2731H168.45C169.367 15.2731 170.11 14.5902 170.11 13.7452C170.11 12.9001 169.367 12.2172 168.45 12.2172H162.903V7.43248H173.88L173.881 7.43155Z" fill="white"/>
<path d="M15.4905 31.9146C15.0566 32.3136 13.6588 33.4978 11.6462 33.5006C11.0877 33.5006 10.1562 33.5006 9.36127 32.9126C7.92843 31.8501 7.98844 29.6494 8.02814 28.2634C8.08538 26.1917 8.65131 24.708 9.32895 22.9653C10.6667 19.5343 12.359 17.1438 13.2332 15.9992C14.7879 13.9672 16.2355 12.6355 16.7092 12.2126C18.7975 10.3399 21.5283 7.95218 25.1187 7.78261C25.8915 7.74483 27.6899 7.66004 28.5171 8.76039C28.9879 9.38613 29.0978 10.3335 29.1449 10.7445C29.227 11.4753 29.1569 12.0854 29.0803 12.4918C29.3498 12.0531 30.2094 10.5298 29.8751 8.57515C29.7958 8.11437 29.5363 6.58827 28.3251 5.65841C28.0259 5.42895 26.8175 4.58111 23.7108 5.21975C19.6967 6.0427 16.9806 8.436 14.955 10.2579C14.1823 10.9537 11.8973 13.0825 9.72224 16.4536C8.37896 18.5326 7.5693 20.325 7.1437 21.3526C6.20479 23.6141 5.08585 26.3963 5.33696 29.8816C5.44867 31.4252 5.57146 32.8389 6.67009 33.8204C8.05584 35.0599 10.0592 34.7779 10.8043 34.6728C13.4003 34.3088 14.9957 32.5164 15.4887 31.9127L15.4914 31.9155L15.4905 31.9146Z" fill="white"/>
<path fill-rule="evenodd" clip-rule="evenodd" d="M3.19887 30.5008C2.94684 28.9673 2.72803 26.8136 2.89975 24.2507C2.97176 23.1734 3.09917 21.3939 3.69464 19.3222C4.18025 17.6247 5.27704 14.6978 7.92759 11.6355C8.84158 10.4762 10.2421 8.93808 12.2455 7.494C14.6846 5.73658 16.9668 4.86847 18.3129 4.44455C21.064 3.57737 23.4709 3.43452 25.0976 3.46493C23.6777 3.00876 21.5967 2.52771 19.0625 2.57747C16.5357 2.62724 14.6025 3.1857 13.6931 3.48705C13.0653 3.6944 11.3684 4.29526 9.4269 5.55872C8.90066 5.90062 7.0173 7.16223 5.10162 9.41084C4.32428 10.326 3.24042 11.6171 2.32366 13.6039C2.09471 14.1025 1.11979 16.2765 0.851133 19.348C0.805895 19.854 0.669259 21.6694 1.03762 24.0222C1.27951 25.563 1.82513 27.8964 3.19795 30.5017V30.4989L3.19887 30.5008Z" fill="white"/>
<path fill-rule="evenodd" clip-rule="evenodd" d="M0.637943 13.58L0 5.64906L7.68671 5.34955C7.68671 5.34955 2.96999 8.22205 0.637943 13.58Z" fill="white"/>
<path fill-rule="evenodd" clip-rule="evenodd" d="M15.2239 23.5929L32.5213 31.6833L20.3117 16.425L23.651 24.9642L15.2239 23.5929Z" fill="white"/>
</svg>
