<svg width="157" height="46" viewBox="0 0 157 46" fill="none" xmlns="http://www.w3.org/2000/svg">
<path d="M59.4695 33.139H56.6203C56.3866 33.139 56.2369 32.9481 56.2369 32.7148V17.773C56.2369 17.5397 56.3858 17.3695 56.6203 17.3695H59.4695C59.7032 17.3695 59.8737 17.5389 59.8737 17.773V32.7148C59.8737 32.9481 59.7032 33.139 59.4695 33.139Z" fill="white"/>
<path d="M72.8656 20.3623H69.4209V32.715C69.4209 32.9482 69.2296 33.1392 68.9959 33.1392H66.2099C65.9762 33.1392 65.785 32.9482 65.785 32.715V20.3623H62.3195C62.0858 20.3623 61.8945 20.1921 61.8945 19.9589V17.7731C61.8945 17.5398 62.0858 17.3696 62.3195 17.3696H72.8656C73.0993 17.3696 73.3122 17.539 73.3122 17.7731V19.9589C73.3122 20.1921 73.0993 20.3623 72.8656 20.3623Z" fill="white"/>
<path d="M86.7308 33.1393H83.924C83.6903 33.1393 83.5414 32.9484 83.5414 32.7151V27.5574H78.9275V32.7151C78.9275 32.9484 78.757 33.1393 78.5233 33.1393H75.7173C75.4836 33.1393 75.2924 32.9484 75.2924 32.7151V21.8908C75.2924 18.0704 77.6101 17.2212 80.4594 17.2212H82.0112C84.8604 17.2212 87.1574 18.0704 87.1574 21.8908V32.7151C87.1574 32.9484 86.9653 33.1393 86.7324 33.1393H86.7308ZM83.5414 21.8908C83.5414 20.7236 83.2013 20.3625 82.0104 20.3625H80.4585C79.2892 20.3625 78.9275 20.7236 78.9275 21.8908V24.5647H83.5414V21.8908Z" fill="white"/>
<path d="M101.978 33.1393H99.1287C98.8951 33.1393 98.7454 32.9483 98.7454 32.715V23.2497C98.7454 20.8721 97.9586 20.2993 96.2147 20.2993C95.3431 20.2993 94.3859 20.3416 93.7272 20.4263V32.715C93.7272 32.9483 93.5567 33.1393 93.3231 33.1393H90.4946C90.2609 33.1393 90.0905 32.9483 90.0905 32.715V18.8557C90.0905 17.9002 90.3458 17.6669 91.1749 17.5391C92.3018 17.3697 94.726 17.1788 95.8105 17.1788C99.9354 17.1788 102.38 18.3252 102.38 23.2488V32.7142C102.38 32.9475 102.21 33.1384 101.976 33.1384L101.978 33.1393Z" fill="white"/>
<path d="M115.886 20.511H115.822C114.801 20.4686 113.207 20.3416 111.399 20.3416C109.591 20.3416 108.614 21.1693 108.614 23.9495V26.6026C108.614 29.5314 109.953 30.2105 110.995 30.2105C111.59 30.2105 112.122 30.1889 112.632 30.1465V25.2652C112.632 25.032 112.802 24.841 113.036 24.841H115.758C115.992 24.841 116.183 25.0328 116.183 25.2652V32.3962C116.183 32.6934 116.077 32.8204 115.758 32.8844C114.61 33.1176 113.122 33.3302 110.995 33.3302C108.572 33.3302 104.935 31.9513 104.935 26.581V23.9486C104.935 18.5369 108.316 17.1779 111.399 17.1779C113.525 17.1779 115.056 17.4967 115.843 17.666C116.056 17.7084 116.204 17.7931 116.204 17.984V20.2337C116.204 20.467 116.077 20.5093 115.886 20.5093V20.511Z" fill="white"/>
<path d="M125.01 33.3302C121.502 33.3302 118.717 31.4416 118.717 26.5171V23.991C118.717 19.0665 121.502 17.1779 125.01 17.1779C128.517 17.1779 131.303 19.0665 131.303 23.991V26.5171C131.303 31.4407 128.518 33.3302 125.01 33.3302ZM127.646 23.9918C127.646 21.4449 126.796 20.3624 125.01 20.3624C123.223 20.3624 122.395 21.4449 122.395 23.9918V26.5179C122.395 29.0648 123.224 30.1474 125.01 30.1474C126.795 30.1474 127.646 29.0648 127.646 26.5179V23.9918Z" fill="white"/>
<path d="M142.575 33.0545C141.873 33.2031 140.236 33.3301 139.109 33.3301C136.367 33.3301 133.922 32.6303 133.922 28.7668V17.7938C133.922 17.5606 134.114 17.3696 134.346 17.3696H137.132C137.365 17.3696 137.557 17.5614 137.557 17.7938V28.7668C137.557 29.8709 137.918 30.2104 138.917 30.2104H142.574C142.808 30.2104 142.999 30.4022 142.999 30.6346V32.6087C142.999 32.8843 142.872 32.9906 142.574 33.0545H142.575Z" fill="white"/>
<path d="M156.354 33.1393H153.548C153.315 33.1393 153.165 32.9484 153.165 32.7151V27.5574H148.551V32.7151C148.551 32.9484 148.381 33.1393 148.147 33.1393H145.34C145.106 33.1393 144.915 32.9484 144.915 32.7151V21.8908C144.915 18.0704 147.233 17.2212 150.082 17.2212H151.634C154.483 17.2212 156.779 18.0704 156.779 21.8908V32.7151C156.779 32.9484 156.588 33.1393 156.354 33.1393ZM153.165 21.8908C153.165 20.7236 152.825 20.3625 151.634 20.3625H150.082C148.913 20.3625 148.551 20.7236 148.551 21.8908V24.5647H153.165V21.8908Z" fill="white"/>
<path d="M33.0847 39.2823C32.4327 39.9132 31.799 40.5267 31.1645 41.1402C29.9927 42.2725 28.8192 43.4024 27.6524 44.5397C27.5468 44.6426 27.4928 44.7962 27.4063 44.9207C27.3663 44.9788 27.3148 45.0577 27.2566 45.0685C25.8835 45.3433 24.4955 45.4869 23.095 45.5051C23.0792 45.5051 23.0634 45.4977 23.0343 45.491C25.0943 43.3982 27.1468 41.3129 29.2143 39.2118C21.7586 31.9604 14.312 24.7173 6.84887 17.4585C5.11739 19.1155 3.3909 20.7675 1.65775 22.4261C6.67921 27.4386 11.6865 32.4369 16.6639 37.4053C16.0011 38.1027 15.3533 38.7851 14.6938 39.4782C14.6214 39.4143 14.5773 39.3778 14.5366 39.3379C9.77542 34.6551 5.01426 29.9713 0.255601 25.2851C0.185743 25.2162 0.127528 25.1083 0.117548 25.0129C-0.00387196 23.8183 -0.0354744 22.6212 0.0427001 21.4225C0.0767974 20.8936 0.132518 20.3657 0.191564 19.8385C0.199881 19.7605 0.26558 19.6783 0.325459 19.6194C2.16672 17.7889 4.01047 15.9617 5.85422 14.1329C10.499 9.52639 15.1428 4.91989 19.7909 0.317534C19.8682 0.24116 19.9872 0.178072 20.0936 0.164789C21.4783 -0.00954233 22.868 -0.0377693 24.2602 0.0435855C24.2876 0.0452458 24.315 0.0535489 24.3799 0.0660012C19.2079 5.14569 14.0584 10.203 8.93879 15.2312C10.706 17.031 12.4641 18.8216 14.2422 20.633C16.8702 18.0579 19.4674 15.5126 22.0821 12.9516C27.7306 18.4945 33.3733 24.0316 39.0351 29.587C40.8123 27.7897 42.5854 25.9966 44.3393 24.2234C38.8081 18.6664 33.2835 13.1151 27.7705 7.57637C28.4076 6.94131 29.0695 6.28134 29.7407 5.61224C29.769 5.6388 29.8172 5.68114 29.8629 5.72597C35.0358 10.8331 40.2077 15.9418 45.3831 21.0464C45.5028 21.1643 45.5535 21.283 45.5619 21.4507C45.6251 22.6436 45.6126 23.8365 45.4779 25.0228C45.3881 25.8148 45.245 26.6009 45.1194 27.3896C45.1078 27.4601 45.0654 27.5373 45.0146 27.5888C42.9996 29.616 40.9812 31.6408 38.9636 33.6664C38.9436 33.6863 38.9195 33.7037 38.8854 33.7319C33.429 28.3451 27.9776 22.9624 22.512 17.5672C20.6467 19.4052 18.7913 21.234 16.9209 23.0778C22.3108 28.4812 27.6898 33.8747 33.0847 39.2831V39.2823Z" fill="white"/>
<path d="M14.1342 17.6635C13.3865 16.8806 12.658 16.1169 11.917 15.3415C11.9245 15.334 11.9669 15.2859 12.0118 15.2411C16.827 10.4694 21.6422 5.69766 26.4574 0.925952C27.0138 0.374732 27.0155 0.370578 27.7748 0.54408C32.2864 1.57513 36.1494 3.75593 39.3379 7.1031C42.0624 9.96297 43.9086 13.3176 44.8941 17.1421C44.9099 17.2052 44.9241 17.2683 44.9532 17.3887C39.8311 12.4808 34.7464 7.60949 29.6801 2.75477C28.0459 4.38602 26.4175 6.01146 24.7692 7.65682C30.2398 13.1532 35.7394 18.6779 41.2574 24.2216C40.5064 25.0186 39.7604 25.8106 38.9995 26.6191C33.3709 21.0604 27.7515 15.5109 22.1179 9.9472C19.4642 12.5124 16.8187 15.0701 14.1342 17.6643V17.6635Z" fill="white"/>
<path d="M38.8197 36.7073C40.4739 34.9964 42.1081 33.3062 43.7431 31.616C43.7597 31.6326 43.7763 31.6484 43.793 31.665C41.3912 37.0784 37.5016 41.0366 32.1017 43.5469C32.056 43.3593 32.0918 43.2381 32.2182 43.1136C33.4831 41.8717 34.7405 40.6232 36.0005 39.3771C36.0379 39.3397 36.0737 39.2999 36.1277 39.2434C30.7304 33.8441 25.3372 28.449 19.9564 23.0671C20.7939 22.2312 21.6205 21.4068 22.4663 20.5626C27.8994 25.9262 33.3525 31.3105 38.8197 36.7073Z" fill="white"/>
<path d="M0.808716 28.7436C5.41352 33.3401 9.98507 37.9035 14.5732 42.4834C15.8199 41.2755 17.0432 40.0901 18.309 38.8639C18.3497 38.927 18.378 38.9885 18.4221 39.0349C19.6429 40.3192 20.8646 41.6034 22.0896 42.8835C22.1878 42.9856 22.2036 43.0446 22.0938 43.1533C21.5341 43.707 20.986 44.2732 20.4272 44.8286C20.2708 44.9838 20.0962 45.1208 19.9215 45.2544C19.8733 45.2918 19.7893 45.3051 19.7261 45.2968C17.9971 45.0743 16.3189 44.6468 14.6913 44.025C7.95835 41.4523 2.87119 35.9219 0.873584 29.0076C0.852793 28.9345 0.836992 28.8598 0.808716 28.7427V28.7436Z" fill="white"/>
<path d="M25.9967 39.2201C25.2607 39.9274 24.5388 40.6214 23.7795 41.3511C18.7547 36.3768 13.6925 31.3661 8.62781 26.3511C9.31308 25.6845 9.98255 25.0337 10.662 24.3729C15.7425 29.2915 20.8563 34.2425 25.9967 39.2193V39.2201Z" fill="white"/>
<path d="M1.20703 15.5566C2.19336 12.5166 3.77514 9.8286 5.91579 7.46516C8.93965 4.12547 12.7452 2.00526 16.0169 1.03979C11.062 5.89618 6.13452 10.7268 1.20703 15.5566Z" fill="white"/>
<path d="M4.77146 22.4477C5.40601 21.7811 6.05219 21.1029 6.67676 20.4471C7.49842 21.2457 8.29264 22.0161 9.10183 22.8022C8.43818 23.4838 7.78367 24.1562 7.12418 24.8328C6.3258 24.0234 5.53491 23.2214 4.77063 22.4469L4.77146 22.4477Z" fill="white"/>
</svg>
