<svg width="185" height="50" viewBox="0 0 185 50" fill="none" xmlns="http://www.w3.org/2000/svg">
<path d="M90.6047 44.0156L87.9803 37.2492H71.4064L68.725 44.0156H58.4419L74.9073 5.75653H85.1904L101.273 44.0156H90.6047ZM74.4134 29.6082H85.0249L79.7734 15.9644L74.4134 29.6082Z" fill="white"/>
<path d="M131.878 8.15822C134.958 9.75844 137.357 12.0058 139.073 14.8976C140.785 17.7893 141.643 21.1116 141.643 24.859C141.643 28.6064 140.777 31.9368 139.046 34.8475C137.314 37.7583 134.869 40.0137 131.715 41.6139C128.562 43.2142 124.941 44.0156 120.857 44.0156H104.72V5.75653H121.239C125.251 5.75653 128.798 6.558 131.878 8.15822ZM126.654 34.5741C128.149 33.6643 129.316 32.3727 130.155 30.6994C130.993 29.0261 131.414 27.1172 131.414 24.97C131.414 22.8229 130.966 20.8598 130.073 19.1838C129.18 17.5104 127.948 16.2081 126.38 15.282C124.811 14.3533 123.025 13.8903 121.02 13.8903H114.729V35.9387H121.511C123.443 35.9387 125.158 35.4838 126.654 34.5741Z" fill="white"/>
<path d="M173.751 44.0156L171.127 37.2492H154.553L151.872 44.0156H141.589L158.054 5.75653H168.337L184.42 44.0156H173.751ZM157.56 29.6082H168.172L162.92 15.9644L157.56 29.6082Z" fill="white"/>
<path fill-rule="evenodd" clip-rule="evenodd" d="M9.75116 40.0435L3.71537 37.7311L0 40.0435V49.7721H9.75116L12.1204 45.6618L9.75116 40.0435Z" fill="#FF3D87"/>
<path fill-rule="evenodd" clip-rule="evenodd" d="M0 21.1766V40.0435H9.75116L9.75388 11.4453L0 21.1766Z" fill="#8858F9"/>
<path fill-rule="evenodd" clip-rule="evenodd" d="M9.7511 40.0435V49.7721H28.6645L38.4157 40.0435H9.7511Z" fill="#FFC505"/>
<path fill-rule="evenodd" clip-rule="evenodd" d="M40.1364 9.72865L37.8187 3.70684L40.1364 6.10352e-05H49.8876V9.72865L45.7678 12.0924L40.1364 9.72865Z" fill="#FF3D87"/>
<path fill-rule="evenodd" clip-rule="evenodd" d="M21.2257 0H40.1364V9.72859L11.4718 9.7313L21.2257 0Z" fill="#FFC505"/>
<path fill-rule="evenodd" clip-rule="evenodd" d="M40.1365 9.72864H49.8876V28.5983L40.1365 38.3268V9.72864Z" fill="#8858F9"/>
<path d="M27.7608 14.3397H22.0479L12.902 35.5921H18.6148L23.0005 24.4663L23.4863 23.2289L24.751 20.0095L26.8977 25.5819L30.7678 35.5921H36.6923L27.7608 14.3397Z" fill="white"/>
</svg>
