<svg width="127" height="42" viewBox="0 0 127 42" fill="none" xmlns="http://www.w3.org/2000/svg">
<path d="M126.031 9.2256L122.626 9.40848C121.781 10.8538 123.593 10.8337 124.278 11.0575C125.052 11.1902 126.293 11.6818 126.548 11.2018C126.727 10.5891 126.197 9.13917 126.031 9.22483V9.2256Z" fill="white"/>
<path d="M100.862 1.72978C99.7536 0.678007 98.0134 0.105436 95.6417 0.011294C94.4304 -0.0365487 93.2067 0.068394 91.9706 0.326899C90.7337 0.585404 89.6166 1.04531 88.6171 1.70662C87.6175 2.36793 86.7865 3.23836 86.1248 4.31868C85.4623 5.399 85.0997 6.73705 85.0364 8.33284C84.9799 9.75655 85.1732 10.9326 85.6169 11.8593C86.0599 12.7869 86.6358 13.5539 87.3454 14.1589C88.0543 14.7646 88.8243 15.25 89.6568 15.615C90.4886 15.98 91.2648 16.3303 91.9845 16.666C92.7034 17.0024 93.2963 17.3628 93.7609 17.7501C94.2255 18.1375 94.4459 18.6383 94.4219 19.2518C94.408 19.5959 94.3144 19.8876 94.1405 20.1261C93.9666 20.3653 93.7447 20.5528 93.4734 20.6902C93.2028 20.8267 92.8959 20.9193 92.5527 20.9672C92.2094 21.015 91.8608 21.032 91.5083 21.0181C90.6247 20.9834 89.8547 20.8051 89.1976 20.4841C88.5406 20.1631 87.967 19.8089 87.4769 19.42C86.9867 19.0319 86.5523 18.6823 86.1727 18.3729C85.7932 18.0627 85.4267 17.9006 85.0735 17.8867C84.5687 17.8667 84.2076 18.2093 83.9904 18.913C83.7724 19.6176 83.6317 20.7797 83.5676 22.3994C83.5521 22.7929 83.7616 23.2366 84.1968 23.7336C84.6321 24.2305 85.2389 24.6966 86.0181 25.1334C86.7973 25.5693 87.7165 25.9444 88.7794 26.2569C89.8408 26.5694 91.0027 26.7508 92.2651 26.8009C93.7285 26.8588 95.0171 26.7129 96.1303 26.3634C97.2435 26.0146 98.1735 25.5038 98.921 24.8332C99.6678 24.1618 100.243 23.3616 100.646 22.431C101.049 21.5004 101.273 20.4949 101.316 19.4146C101.371 18.0403 101.157 16.8952 100.675 15.9784C100.193 15.0625 99.5727 14.2877 98.8151 13.655C98.0567 13.023 97.2242 12.5037 96.3174 12.0993C95.4106 11.6942 94.5734 11.2991 93.8058 10.9117C93.0374 10.5251 92.4027 10.1131 91.9025 9.67475C91.4016 9.23722 91.1643 8.68703 91.1906 8.02418C91.2207 7.26332 91.5608 6.65603 92.211 6.2023C92.8603 5.74856 93.5893 5.5379 94.3971 5.56954C94.9777 5.59269 95.4268 5.7393 95.7446 6.01016C96.0623 6.28101 96.2896 6.60356 96.4264 6.97782C96.5632 7.35207 96.6428 7.73635 96.6653 8.13067C96.6877 8.52498 96.6939 8.84523 96.6838 9.09061C96.673 9.36147 96.7286 9.54126 96.8516 9.63155C96.9745 9.7226 97.2628 9.77662 97.7174 9.79514C99.1807 9.85301 100.318 9.53585 101.13 8.84213C101.941 8.14919 102.373 7.11517 102.428 5.74008C102.492 4.1196 101.971 2.78385 100.862 1.73208V1.72978Z" fill="white"/>
<path d="M121.1 9.25262C119.784 7.68847 117.537 6.84351 114.357 6.71773C112.187 6.63207 110.363 6.89829 108.885 7.51562C107.407 8.13371 106.205 8.97713 105.278 10.0466C104.35 11.1162 103.676 12.3501 103.254 13.7467C102.832 15.1442 102.591 16.5787 102.534 18.0518C102.482 19.3289 102.574 20.5304 102.807 21.6586C103.04 22.7867 103.481 23.7814 104.129 24.6433C104.778 25.5053 105.666 26.1974 106.795 26.7214C107.924 27.2454 109.359 27.5424 111.101 27.6111C112.691 27.6744 114.08 27.5316 115.269 27.1859C116.458 26.8402 117.483 26.3518 118.341 25.7221C119.2 25.0924 119.918 24.3586 120.495 23.5206C121.072 22.6833 121.536 21.8167 121.887 20.9201C122.238 20.025 122.49 19.1183 122.64 18.2023C122.79 17.2863 122.88 16.4483 122.91 15.6867C123.018 12.962 122.415 10.8175 121.1 9.25339V9.25262ZM116.467 15.652C116.444 16.2168 116.36 16.9144 116.213 17.7439C116.066 18.5742 115.82 19.3636 115.475 20.1122C115.129 20.8607 114.662 21.4942 114.073 22.0112C113.484 22.529 112.747 22.7697 111.864 22.735C110.88 22.6964 110.138 22.2859 109.639 21.5035C109.138 20.7218 108.921 19.5203 108.985 17.9006C109.006 17.3851 109.075 16.7547 109.193 16.0092C109.312 15.2646 109.529 14.5601 109.846 13.8964C110.163 13.2328 110.615 12.6726 111.202 12.2166C111.788 11.7605 112.561 11.5514 113.52 11.5892C114.656 11.634 115.443 12.0159 115.882 12.7336C116.321 13.452 116.516 14.425 116.467 15.652Z" fill="white"/>
<path d="M123.572 4.11184C123.572 4.11184 123.618 3.87958 122.821 3.61258C122.024 3.34559 120.711 3.18817 120.711 3.18817C120.711 3.18817 118.707 6.47928 118.767 6.66294C118.826 6.84736 119.188 7.32348 119.852 7.56269C119.852 7.56269 120.095 7.46238 120.281 7.30573C120.467 7.14909 123.447 4.99925 123.573 4.11184H123.572Z" fill="white"/>
<path d="M125.733 6.6114C125.338 6.16153 124.662 5.45083 124.339 5.46086C124.339 5.4624 120.791 7.49341 120.734 7.52736C120.467 8.02276 121.24 9.03672 121.643 8.85538C127.475 7.93633 126.193 7.15774 125.733 6.6114H125.733Z" fill="white"/>
<path d="M17.5558 2.68817C16.847 1.95587 15.9201 1.39719 14.776 1.01213C13.6319 0.627078 12.2628 0.434937 10.6711 0.434937C10.1238 0.434937 9.48912 0.453454 8.76787 0.490494C8.04585 0.527533 7.29986 0.571522 6.52913 0.620909C5.75763 0.671066 4.98614 0.714275 4.21541 0.751314C3.44391 0.788354 2.73503 0.806871 2.08877 0.806871C1.96431 0.806871 1.83985 0.850861 1.71539 0.937286C1.59093 1.02448 1.52908 1.16723 1.52908 1.36555C1.52908 1.73826 1.5229 2.08628 1.51053 2.40883C1.49739 2.73216 1.48579 3.08558 1.47342 3.47063C1.46028 3.85569 1.43632 4.30325 1.39844 4.81177C1.36133 5.32107 1.31727 5.95383 1.26779 6.71159C1.21754 7.46936 1.14952 8.37529 1.06294 9.43091C0.975582 10.4865 0.869675 11.7467 0.745988 13.2113C0.646265 14.4035 0.552727 15.571 0.466146 16.7123C0.378792 17.8543 0.298395 18.91 0.22341 19.8784C0.148424 20.8468 0.0927654 21.6848 0.0556593 22.3924C0.0185532 23.1001 0 23.6155 0 23.9381C0 25.0307 0.292211 25.8564 0.876633 26.4151C1.46105 26.9738 2.46215 27.2531 3.88068 27.2531H5.59684C5.82102 27.2531 5.97022 27.2099 6.04443 27.1227C6.11942 27.0363 6.16889 26.8935 6.19363 26.6944L6.71621 19.8413C7.4622 20.0651 8.37052 20.1762 9.44042 20.1762C11.2316 20.1762 12.7738 19.866 14.0671 19.2449C15.3604 18.6244 16.4179 17.7926 17.2389 16.7493C18.0599 15.706 18.6628 14.5084 19.0486 13.1549C19.4343 11.8022 19.6268 10.3932 19.6268 8.92779C19.6268 7.58665 19.4591 6.39521 19.1228 5.35193C18.7873 4.30865 18.2647 3.42125 17.5558 2.68894V2.68817ZM13.134 10.9758C13.0343 11.6216 12.8356 12.2421 12.5372 12.8378C12.2388 13.4335 11.8222 13.9366 11.2872 14.3464C10.7523 14.7561 10.0496 14.9606 9.17913 14.9606C8.88073 14.9606 8.55064 14.9421 8.1904 14.9051C7.82939 14.868 7.46297 14.7993 7.08959 14.7006C7.21405 13.0616 7.31377 11.4974 7.38798 10.0073C7.46297 8.51728 7.52404 7.25098 7.57429 6.20847C8.02188 6.15909 8.44474 6.11511 8.84285 6.07807C9.2402 6.04103 9.60121 6.02251 9.92512 6.02251C11.1937 6.02251 12.0703 6.30185 12.5558 6.86053C13.0413 7.41921 13.2832 8.23253 13.2832 9.30051C13.2832 9.77276 13.233 10.3314 13.134 10.9765V10.9758Z" fill="white"/>
<path d="M39.7391 22.4101C39.515 22.3607 39.2599 22.2859 38.9738 22.1864C38.6878 22.0876 38.4327 21.907 38.2085 21.6462C37.9843 21.3854 37.873 20.9448 37.873 20.3236C37.873 20.0504 37.9039 19.5666 37.9665 18.8713C38.0284 18.1761 38.1026 17.4376 38.1907 16.6551C38.2773 15.8727 38.3523 15.128 38.4149 14.4204C38.4768 13.7128 38.5085 13.2228 38.5085 12.9488C38.5085 10.8631 37.8862 9.24952 36.6431 8.1067C35.3993 6.96465 33.3971 6.39362 30.6358 6.39362C29.218 6.39362 27.9734 6.54255 26.9043 6.84041C25.8344 7.13827 24.9454 7.54261 24.2365 8.05113C23.5276 8.56043 22.9927 9.16309 22.6317 9.85759C22.2707 10.5528 22.0905 11.2859 22.0905 12.0553C22.0905 13.9674 23.3591 14.9235 25.8962 14.9235C26.2696 14.9235 26.5425 14.8927 26.7172 14.8301C26.8911 14.7684 27.0032 14.6257 27.0527 14.4019C27.1517 13.9551 27.2637 13.5453 27.3882 13.1726C27.5127 12.7999 27.6742 12.4835 27.8729 12.2227C28.0716 11.9619 28.3329 11.7574 28.6568 11.6085C28.9799 11.4596 29.4028 11.3847 29.9253 11.3847C30.8708 11.3847 31.4923 11.6208 31.7907 12.0923C32.0891 12.5646 32.2383 13.1973 32.2383 13.9921C32.2383 14.2653 32.2321 14.4952 32.2197 14.6812C32.2066 14.8672 32.188 15.0971 32.1641 15.3703C28.2331 15.4699 25.2608 16.1528 23.2462 17.4191C21.2309 18.6853 20.2236 20.4362 20.2236 22.671C20.2236 23.5645 20.3666 24.3285 20.6527 24.962C20.9387 25.5955 21.3244 26.111 21.8091 26.5076C22.2938 26.905 22.8659 27.1905 23.5253 27.3642C24.1839 27.5378 24.8874 27.625 25.6334 27.625C27.1756 27.625 28.4256 27.3017 29.3834 26.6566C30.3405 26.0115 31.1189 25.2537 31.7157 24.3848C31.9144 25.4034 32.3125 26.1974 32.9101 26.7685C33.5069 27.3395 34.4028 27.625 35.5964 27.625C36.4421 27.625 37.1572 27.4761 37.7416 27.1782C38.326 26.8803 38.7867 26.4953 39.1223 26.0238C39.4578 25.5523 39.7005 25.0307 39.8497 24.4597C39.9989 23.8886 40.0739 23.3299 40.0739 22.7836C40.0739 22.5853 39.9618 22.4611 39.7384 22.4109L39.7391 22.4101ZM31.4181 20.2873C31.1939 20.8089 30.9264 21.2496 30.6157 21.6099C30.3041 21.9703 29.9501 22.2373 29.552 22.4109C29.1538 22.5845 28.7557 22.6717 28.3576 22.6717C27.934 22.6717 27.5428 22.5598 27.1818 22.3368C26.8208 22.113 26.6407 21.7164 26.6407 21.1446C26.6407 20.6484 26.7899 20.2263 27.0883 19.8783C27.3867 19.5311 27.7786 19.2517 28.2633 19.0403C28.7488 18.8296 29.3015 18.6745 29.9238 18.575C30.5453 18.4762 31.18 18.4261 31.827 18.4261C31.7768 19.1468 31.6407 19.7672 31.4165 20.2881L31.4181 20.2873Z" fill="white"/>
<path d="M60.8394 7.56731C60.255 7.03333 59.3157 6.76633 58.0224 6.76633H56.3062C56.0079 6.76633 55.8455 6.89057 55.8216 7.13904C55.8216 7.21389 55.8154 7.38134 55.803 7.64216C55.7899 7.90298 55.7713 8.16998 55.7473 8.44314C55.7226 8.71631 55.7033 8.9586 55.6917 9.16926C55.6785 9.3807 55.6731 9.4733 55.6731 9.4486C55.5487 9.02651 55.3685 8.62911 55.132 8.2564C54.8954 7.88369 54.5847 7.5619 54.1989 7.28796C53.8132 7.0148 53.3532 6.79797 52.8183 6.63592C52.2833 6.47464 51.6432 6.39362 50.8965 6.39362C49.1053 6.39362 47.6373 6.76015 46.4932 7.49245C45.3491 8.22553 44.447 9.14998 43.7883 10.2673C43.1289 11.3847 42.6744 12.6078 42.4262 13.9358C42.1773 15.2646 42.0529 16.5247 42.0529 17.7161C42.0529 19.1815 42.2206 20.4416 42.5569 21.4965C42.8924 22.5521 43.3593 23.4272 43.9561 24.1224C44.5529 24.8177 45.2741 25.327 46.1206 25.6496C46.9663 25.9729 47.8986 26.1334 48.919 26.1334C50.2626 26.1334 51.382 25.8672 52.2771 25.3324C53.1723 24.7984 53.9315 23.9727 54.553 22.8554C54.553 25.1156 54.2229 26.8472 53.5643 28.051C52.9049 29.2547 51.7546 29.8574 50.1126 29.8574C49.1672 29.8574 48.4707 29.7332 48.0231 29.4847C47.5755 29.2362 47.2268 28.9569 46.9779 28.6467C46.729 28.3357 46.5048 28.0564 46.3061 27.8086C46.1067 27.5602 45.7959 27.4359 45.3731 27.4359C45.0244 27.4359 44.658 27.4915 44.2723 27.6034C43.8865 27.7153 43.5317 27.8827 43.2086 28.1065C42.8847 28.3303 42.6241 28.615 42.4247 28.963C42.2252 29.3103 42.1263 29.72 42.1263 30.1923C42.1263 30.7139 42.294 31.2356 42.6303 31.7564C42.9658 32.2781 43.4567 32.7434 44.1045 33.1531C44.7508 33.5629 45.5656 33.8916 46.5489 34.1401C47.5314 34.3878 48.6817 34.5128 50.0005 34.5128C51.7414 34.5128 53.2156 34.3268 54.4223 33.9541C55.6283 33.5814 56.6178 33.0845 57.3885 32.4641C58.1592 31.8429 58.756 31.1353 59.1797 30.3412C59.6025 29.5464 59.9009 28.7269 60.0748 27.8827C60.2488 27.0385 60.4103 26.0578 60.5595 24.9404C60.7087 23.823 60.8456 22.6563 60.97 21.4394C61.0945 20.2233 61.2058 19.0125 61.3055 17.808C61.4045 16.6042 61.4856 15.5054 61.5483 14.5115C61.6101 13.5183 61.6542 12.668 61.6789 11.9604C61.7036 11.2527 61.716 10.7998 61.716 10.6007C61.716 9.11062 61.423 8.09898 60.8394 7.565V7.56731ZM55.224 17.1582C55.149 17.8041 54.9751 18.4245 54.7014 19.0202C54.427 19.616 54.0358 20.1253 53.5264 20.5474C53.0162 20.9702 52.3135 21.1809 51.4183 21.1809C50.3979 21.1809 49.6766 20.8769 49.2538 20.268C48.8301 19.66 48.6191 18.7347 48.6191 17.4931C48.6191 17.1204 48.6562 16.5934 48.7312 15.9105C48.8062 15.2276 48.9739 14.5454 49.2352 13.8617C49.4965 13.1788 49.8884 12.5892 50.4102 12.0923C50.9328 11.5961 51.6541 11.3477 52.5748 11.3477C53.4955 11.3477 54.185 11.664 54.6458 12.2976C55.1057 12.9311 55.3361 13.9921 55.3361 15.4822C55.3361 15.9545 55.299 16.5131 55.224 17.1582Z" fill="white"/>
<path d="M83.3951 22.4101C83.1709 22.3607 82.9158 22.2859 82.6298 22.1864C82.3438 22.0876 82.0887 21.907 81.8652 21.6462C81.6411 21.3854 81.5297 20.9448 81.5297 20.3236C81.5297 20.0504 81.5607 19.5666 81.6233 18.8713C81.6851 18.1761 81.7593 17.4376 81.8475 16.6551C81.934 15.8727 82.009 15.128 82.0717 14.4204C82.1335 13.7128 82.1652 13.2228 82.1652 12.9488C82.1652 10.8631 81.5429 9.24952 80.2998 8.1067C79.056 6.96465 77.0538 6.39362 74.2925 6.39362C72.8747 6.39362 71.6301 6.54255 70.561 6.84041C69.4911 7.13827 68.6021 7.54261 67.8932 8.05113C67.1844 8.56043 66.6494 9.16309 66.2884 9.85759C65.9274 10.5528 65.7473 11.2859 65.7473 12.0553C65.7473 13.9674 67.0158 14.9235 69.553 14.9235C69.9263 14.9235 70.1992 14.8927 70.3739 14.8301C70.5479 14.7684 70.66 14.6257 70.7094 14.4019C70.8084 13.9551 70.9205 13.5453 71.0449 13.1726C71.1694 12.7999 71.331 12.4835 71.5296 12.2227C71.7283 11.9619 71.9896 11.7574 72.3135 11.6085C72.6366 11.4596 73.0595 11.3847 73.5821 11.3847C74.5275 11.3847 75.149 11.6208 75.4474 12.0923C75.7458 12.5646 75.895 13.1973 75.895 13.9921C75.895 14.2653 75.8888 14.4952 75.8765 14.6812C75.8633 14.8672 75.8448 15.0971 75.8208 15.3703C71.8899 15.4699 68.9175 16.1528 66.903 17.4191C64.8876 18.6853 63.8804 20.4362 63.8804 22.671C63.8804 23.5645 64.0234 24.3285 64.3094 24.962C64.5954 25.5955 64.9812 26.111 65.4659 26.5076C65.9506 26.905 66.5226 27.1905 67.182 27.3642C67.8407 27.5378 68.5441 27.625 69.2901 27.625C70.8324 27.625 72.0824 27.3017 73.0402 26.6566C73.9972 26.0115 74.7749 25.2537 75.3724 24.3848C75.5711 25.4034 75.9692 26.1974 76.5668 26.7685C77.1636 27.3395 78.0595 27.625 79.2531 27.625C80.0988 27.625 80.8139 27.4761 81.3983 27.1782C81.9827 26.8803 82.4435 26.4953 82.779 26.0238C83.1145 25.5523 83.3572 25.0307 83.5064 24.4597C83.6556 23.8886 83.7306 23.3299 83.7306 22.7836C83.7306 22.5853 83.6185 22.4611 83.3951 22.4109V22.4101ZM75.0741 20.2873C74.8499 20.8089 74.5824 21.2496 74.2716 21.6099C73.9601 21.9703 73.606 22.2373 73.2079 22.4109C72.8098 22.5845 72.4117 22.6717 72.0136 22.6717C71.5899 22.6717 71.1988 22.5598 70.8385 22.3368C70.4775 22.113 70.2974 21.7164 70.2974 21.1446C70.2974 20.6484 70.4466 20.2263 70.745 19.8783C71.0434 19.5311 71.4353 19.2517 71.92 19.0403C72.4047 18.8296 72.9582 18.6745 73.5805 18.575C74.2021 18.4762 74.8367 18.4261 75.4838 18.4261C75.4335 19.1468 75.2975 19.7672 75.0733 20.2881L75.0741 20.2873Z" fill="white"/>
<path d="M63.723 34.2852C63.4787 34.5483 63.3558 34.9835 63.3558 35.5908V36.0608H62.6879V37.1689H63.3558V40.9438L64.0616 40.9253L64.7766 40.9438V37.1689H65.9524V36.0608H64.7766V35.5908C64.7766 35.2282 64.9645 35.0491 65.341 35.0553L65.9146 35.0646L65.9432 35.0738L65.9617 35.0646L65.971 33.9001H64.9645C64.387 33.9001 63.9734 34.0282 63.723 34.2852Z" fill="white"/>
<path d="M70.5441 39.8543C70.5062 39.8296 70.4876 39.7416 70.4876 39.5912V37.9105C70.4876 36.6149 69.8228 35.9667 68.4932 35.9667C67.5586 35.9667 66.8938 36.2576 66.4987 36.8402L67.6181 37.601C67.8253 37.2816 68.1167 37.1219 68.4932 37.1219C68.8697 37.1219 69.0768 37.1844 69.0768 37.3094C69.0768 37.6535 68.5906 37.9197 67.6189 38.1073C67.23 38.189 66.9131 38.3511 66.6688 38.5957C66.4307 38.8465 66.3116 39.1343 66.3116 39.46C66.3116 40.5117 66.835 41.038 67.8825 41.038C68.4661 41.038 68.889 40.8536 69.1526 40.484C69.2152 40.6908 69.3752 40.8219 69.6326 40.8783C69.8336 40.9223 70.3067 40.9377 71.0535 40.9253V39.8828C70.759 39.8952 70.5889 39.8859 70.5456 39.8543H70.5441ZM69.0761 39.122C69.0258 39.7478 68.7715 40.0611 68.3138 40.0611C67.925 40.0611 67.7302 39.845 67.7302 39.4129C67.7302 39.2501 67.9714 39.1158 68.4545 39.0093C68.6988 38.9592 68.906 38.8936 69.0753 38.8118V39.122H69.0761Z" fill="white"/>
<path d="M73.6109 39.8726C72.977 39.8726 72.6608 39.4158 72.6608 38.5014C72.6608 37.587 72.9778 37.0738 73.6109 37.0738C73.8049 37.0738 74.1281 37.3146 74.5795 37.7969L75.5953 36.8763L75.5103 36.7822C75.4353 36.688 75.2907 36.5661 75.0774 36.4156C74.6383 36.1154 74.1489 35.965 73.6094 35.965C72.8379 35.965 72.2387 36.1687 71.8128 36.5753C71.3552 37.0137 71.1263 37.6557 71.1263 38.5006C71.1263 39.3456 71.3552 39.9876 71.8128 40.4259C72.2395 40.8334 72.8386 41.0363 73.6094 41.0363C74.5502 41.0363 75.215 40.7701 75.6038 40.2384L74.5594 39.29C74.2773 39.6782 73.9603 39.8726 73.6094 39.8726H73.6109Z" fill="white"/>
<path d="M76.6403 33.5908C76.3828 33.5908 76.1617 33.6834 75.977 33.8678C75.7922 34.0523 75.6995 34.273 75.6995 34.5299C75.6995 34.7869 75.7922 35.0076 75.977 35.192C76.1617 35.3764 76.3828 35.469 76.6403 35.469C76.8977 35.469 77.1188 35.3764 77.3035 35.192C77.4883 35.0076 77.5811 34.7869 77.5811 34.5299C77.5811 34.273 77.4883 34.0523 77.3035 33.8678C77.1188 33.6834 76.8977 33.5908 76.6403 33.5908Z" fill="white"/>
<path d="M77.3456 36.0599H76.6406V36.0792L75.9348 36.0599L75.9255 36.0792L75.9348 36.1069V40.8966L75.9255 40.9151L75.9348 40.9437L76.6406 40.9244L77.3456 40.9437L77.3557 40.9151L77.3456 40.8966V36.0599Z" fill="white"/>
<path d="M79.463 33.9001H78.7572V33.9194L78.0514 33.9001L78.0421 33.9194L78.0514 33.9472V40.8968L78.0421 40.9153L78.0514 40.9438L78.7572 40.9245L79.463 40.9438L79.4722 40.9153L79.463 40.8968V33.9001Z" fill="white"/>
<path d="M80.8737 33.5908C80.6162 33.5908 80.3951 33.6834 80.2104 33.8678C80.0256 34.0523 79.9329 34.273 79.9329 34.5299C79.9329 34.7869 80.0256 35.0076 80.2104 35.192C80.3951 35.3764 80.6162 35.469 80.8737 35.469C81.1311 35.469 81.3522 35.3764 81.5369 35.192C81.7217 35.0076 81.8144 34.7869 81.8144 34.5299C81.8144 34.273 81.7217 34.0523 81.5369 33.8678C81.3522 33.6834 81.1311 33.5908 80.8737 33.5908Z" fill="white"/>
<path d="M81.5795 36.0599H80.8738V36.0792L80.168 36.0599L80.1587 36.0792L80.168 36.1069V40.8966L80.1587 40.9151L80.168 40.9437L80.8738 40.9244L81.5795 40.9437L81.5888 40.9151L81.5795 40.8966V36.0599Z" fill="white"/>
<path d="M83.8846 33.8909H82.4738V36.06H81.9938V37.1681H82.4738V39.5348C82.4738 40.1112 82.5272 40.477 82.6339 40.6336C82.7715 40.8404 83.0977 40.9438 83.6125 40.9438H84.7605V39.7886H84.2341C84.0771 39.7886 83.9766 39.7701 83.9333 39.7323C83.9016 39.7076 83.8862 39.6413 83.8862 39.5348V37.1681H84.7613V36.06H83.8862V33.8909H83.8846Z" fill="white"/>
<path d="M89.3785 39.8543C89.3407 39.8296 89.3221 39.7416 89.3221 39.5912V37.9105C89.3221 36.6149 88.6573 35.9667 87.3276 35.9667C86.393 35.9667 85.7282 36.2576 85.3332 36.8402L86.4526 37.601C86.6597 37.2816 86.9512 37.1219 87.3276 37.1219C87.7041 37.1219 87.9113 37.1844 87.9113 37.3094C87.9113 37.6535 87.425 37.9197 86.4533 38.1073C86.0645 38.189 85.7475 38.3511 85.5033 38.5957C85.2652 38.8465 85.1461 39.1343 85.1461 39.46C85.1461 40.5117 85.6695 41.038 86.7169 41.038C87.3006 41.038 87.7234 40.8536 87.9871 40.484C88.0497 40.6908 88.2097 40.8219 88.4671 40.8783C88.6681 40.9223 89.1412 40.9377 89.888 40.9253V39.8828C89.5934 39.8952 89.4234 39.8859 89.3801 39.8543H89.3785ZM87.9105 39.122C87.8603 39.7478 87.6059 40.0611 87.1483 40.0611C86.7595 40.0611 86.5647 39.845 86.5647 39.4129C86.5647 39.2501 86.8058 39.1158 87.289 39.0093C87.5333 38.9592 87.7405 38.8936 87.9098 38.8118V39.122H87.9105Z" fill="white"/>
<path d="M95.2112 35.9666C94.6778 35.9666 94.2518 36.1387 93.9318 36.4829V33.9001L92.8689 33.9094L92.5117 33.9001V40.9431L93.2175 40.9245H93.9326V40.521C94.2526 40.8651 94.6786 41.0372 95.212 41.0372C95.7825 41.0372 96.2409 40.8057 96.5857 40.3419C96.9366 39.872 97.1129 39.2585 97.1129 38.5015C97.1129 37.7445 96.9374 37.1303 96.5857 36.6611C96.2409 36.1981 95.7825 35.9659 95.212 35.9659L95.2112 35.9666ZM95.3527 39.4977C95.1957 39.7485 94.9917 39.8735 94.7412 39.8735C94.2016 39.8735 93.9318 39.4167 93.9318 38.5023C93.9318 37.5879 94.2016 37.1311 94.7412 37.1311C94.9917 37.1311 95.1957 37.2561 95.3527 37.5069C95.5034 37.7577 95.5784 38.0895 95.5784 38.5023C95.5784 38.9151 95.5034 39.2477 95.3527 39.4977Z" fill="white"/>
<path d="M101.835 36.0792H101.129L100.423 36.0607L100.414 36.0792L100.423 36.1078V38.5686C100.423 38.9251 100.348 39.2137 100.197 39.4329C100.047 39.652 99.8496 39.7616 99.6045 39.7616C99.2659 39.7616 99.0966 39.483 99.0966 38.9259V36.08H98.3816L97.6758 36.0615V38.9259C97.6758 39.6582 97.7794 40.1845 97.9865 40.5039C98.2123 40.8604 98.6042 41.0395 99.1623 41.0395C99.7205 41.0395 100.122 40.7701 100.423 40.2315V40.9453L101.477 40.9361L101.834 40.9453L101.843 40.9168L101.834 40.8982V36.0808L101.835 36.0792Z" fill="white"/>
<path d="M106.435 33.9001H104.592L104.159 35.3092H105.447L106.435 33.9001Z" fill="white"/>
<path d="M104.704 39.8727C104.227 39.8727 103.98 39.4468 103.961 38.5956H107.179C107.179 36.8424 106.389 35.9658 104.808 35.9658C104.068 35.9658 103.494 36.1695 103.086 36.5762C102.647 37.0145 102.428 37.6565 102.428 38.5015C102.428 39.3464 102.638 39.9885 103.058 40.4268C103.446 40.8342 103.995 41.0372 104.704 41.0372C105.883 41.0372 106.642 40.7648 106.981 40.22L105.852 39.3657C105.651 39.7037 105.269 39.8727 104.704 39.8727ZM104.808 37.0739C105.184 37.0739 105.451 37.2553 105.607 37.6187H104.093C104.237 37.256 104.475 37.0739 104.808 37.0739Z" fill="white"/>
<path d="M108.716 39.3519C108.531 39.1674 108.31 39.0748 108.053 39.0748C107.796 39.0748 107.574 39.1674 107.39 39.3519C107.205 39.5363 107.112 39.757 107.112 40.0139C107.112 40.2709 107.205 40.4916 107.39 40.676C107.574 40.8604 107.796 40.953 108.053 40.953C108.31 40.953 108.531 40.8604 108.716 40.676C108.901 40.4916 108.994 40.2709 108.994 40.0139C108.994 39.757 108.901 39.5363 108.716 39.3519Z" fill="white"/>
<path d="M108.712 38.1736L108.9 33.9001H107.245L107.376 38.1736H108.712Z" fill="white"/>
</svg>
