<svg width="172" height="29" viewBox="0 0 172 29" fill="none" xmlns="http://www.w3.org/2000/svg">
<path d="M8.80736 11.7849C9.3419 11.5011 10.0915 11.3582 11.0609 11.3582C12.7504 11.3582 14.3614 11.6605 15.894 12.2659C16.7923 12.6198 17.8152 12.2328 18.2768 11.3895L19.8703 8.47465C18.8612 7.90512 17.6601 7.4554 16.2651 7.1218C14.8701 6.78819 13.4918 6.62231 12.1272 6.62231C10.7627 6.62231 9.51269 6.78359 8.31528 7.10706C7.11879 7.43052 6.0451 7.90052 5.09696 8.51981C4.14881 9.13726 3.3964 9.9473 2.84339 10.9481C2.28946 11.9489 2.0125 13.0861 2.0125 14.3625C2.0125 15.2656 2.17496 16.0591 2.50086 16.7447C2.82675 17.4304 3.29207 17.9861 3.89585 18.4063C4.49963 18.8293 5.11172 19.1666 5.73582 19.4219C6.35806 19.6771 7.06617 19.8919 7.85829 20.0706C9.95492 20.5222 11.3444 20.8807 12.0276 21.1443C12.7107 21.4097 13.0514 21.7682 13.0514 22.2179C13.0514 23.473 11.9444 24.1015 9.72873 24.1015C7.66534 24.1015 5.72937 23.6869 3.92632 22.8565C2.95694 22.4086 1.80662 22.8363 1.36347 23.8011L-0.00012207 26.7787C2.6292 28.2495 5.46809 28.9849 8.51378 28.9849C11.5595 28.9849 14.0466 28.2283 16.0334 26.7179C18.022 25.2074 19.0135 23.2454 19.0135 20.8319C19.0135 19.8891 18.815 19.0606 18.4199 18.3455C18.0248 17.6285 17.4616 17.0507 16.7276 16.6093C15.9965 16.1678 15.2782 15.8305 14.5765 15.5937C13.8749 15.3578 13.0578 15.1421 12.1291 14.9477C10.567 14.6141 9.48869 14.3155 8.89599 14.051C8.30236 13.7856 8.00601 13.4271 8.00601 12.9774C8.00601 12.4678 8.27374 12.0697 8.80551 11.7858H8.80736V11.7849Z" fill="white"/>
<path d="M35.0019 6.62128C31.2232 6.62128 28.015 7.83774 25.3756 10.2697C22.7352 12.7017 21.4159 15.7143 21.4159 19.3029C21.4159 22.1477 22.3557 24.4719 24.2336 26.2763C26.1132 28.0807 28.5847 28.9839 31.6507 28.9839C35.4294 28.9839 38.6311 27.7674 41.2632 25.3354C43.8925 22.9034 45.209 19.8908 45.209 16.3023C45.209 13.4574 44.2757 11.1332 42.4061 9.32882C40.5366 7.52441 38.0698 6.62128 35.0038 6.62128H35.0019ZM37.3312 21.9524C35.9759 23.3052 34.3298 23.9826 32.3911 23.9826C30.8687 23.9826 29.6316 23.4877 28.6835 22.497C27.7353 21.5063 27.2589 20.2364 27.2589 18.6873C27.2589 16.6856 27.9421 15.0093 29.3057 13.6546C30.6693 12.3018 32.3218 11.6244 34.2597 11.6244C35.7821 11.6244 37.0146 12.1193 37.9525 13.11C38.8924 14.1007 39.3623 15.3706 39.3623 16.9197C39.3623 18.9213 38.6856 20.5967 37.3303 21.9524H37.3312Z" fill="white"/>
<path d="M41.3951 0H37.2822C37.2092 0 37.14 0.0331753 37.0966 0.0912336L33.3917 4.89348C33.2726 5.04646 33.3834 5.26856 33.5773 5.26856H36.7689C36.8335 5.26856 36.8944 5.24184 36.9378 5.19576L41.5668 0.393508C41.709 0.246058 41.6047 0 41.3979 0H41.396H41.3951Z" fill="white"/>
<path d="M60.4854 16.5669L55.5315 7.06372H49.8361L46.603 28.5444H52.2088L53.9592 15.7734L58.5882 23.7191H60.19L67.3976 15.39L65.2317 28.5444H70.8689L74.102 7.06372H68.1675L60.4854 16.5669Z" fill="white"/>
<path d="M117.65 20.1573L109.553 7.06372H103.885L100.652 28.5444H106.287L108.185 15.7135L116.314 28.5444H121.95L125.185 7.06372H119.607L117.649 20.1573H117.65Z" fill="white"/>
<path d="M126.164 28.5435H143.341L144.054 23.9237H132.512L133.075 20.1278H143.429L144.142 15.508H133.788L134.352 11.6835H145.892L146.575 7.06372H129.398L126.165 28.5444L126.164 28.5435Z" fill="white"/>
<path d="M164.032 7.81301L158.321 15.2131L154.958 8.1586C154.639 7.48954 153.959 7.06287 153.214 7.06287H147.909L154.642 20.6292L153.427 28.5454H159.094L160.309 20.6292L171.078 7.06287H165.565C164.963 7.06287 164.397 7.34025 164.032 7.81301Z" fill="white"/>
<path d="M88.8725 16.8064C88.5743 16.7944 88.277 16.7751 87.9807 16.7548C87.3141 16.705 86.6522 16.6285 85.9939 16.5244C85.3356 16.4249 84.6848 16.3005 84.0385 16.1493C82.7479 15.8489 81.484 15.4489 80.2561 14.9559C79.6422 14.7089 79.0384 14.4362 78.4429 14.1413C78.0736 13.9588 77.7099 13.7662 77.348 13.5653C77.5732 13.1838 77.7967 12.8004 78.0164 12.4152C78.1355 12.2097 78.2499 12.0051 78.3653 11.7977C77.9185 11.4807 77.5215 11.1849 77.1827 10.9213C77.0285 11.1655 76.8734 11.4125 76.723 11.6613C76.4035 12.1774 76.0924 12.6972 75.7868 13.2197C75.7009 13.3671 75.6151 13.5118 75.5302 13.6593C75.7471 13.7901 75.965 13.9182 76.1838 14.0427C76.7894 14.3845 77.4052 14.6997 78.0321 14.9872C78.6589 15.2748 79.2978 15.5347 79.9431 15.7641C81.2356 16.2258 82.5604 16.5742 83.9028 16.8064C84.5749 16.9207 85.2498 17.0073 85.9265 17.0672C86.6032 17.1216 87.2836 17.1483 87.9631 17.1483C88.6426 17.1483 89.3166 17.1133 89.9914 17.0506C89.6129 16.9806 89.2399 16.8995 88.8679 16.8083L88.8697 16.8064H88.8725Z" fill="white"/>
<path d="M78.3377 13.4501C80.5497 14.5504 82.9095 15.2923 85.3302 15.659C82.807 14.6398 80.6116 13.3367 78.9636 12.2133C78.755 12.6253 78.5454 13.0381 78.3368 13.4501H78.3377Z" fill="white"/>
<path d="M78.6904 11.3268C79.2212 11.7664 79.7705 12.1802 80.3346 12.5681C81.4628 13.3469 82.651 14.0224 83.8872 14.5919C84.5057 14.8757 85.1363 15.1328 85.7733 15.3623C86.4149 15.5881 87.0621 15.789 87.7204 15.9632C88.374 16.1392 89.0387 16.2765 89.7043 16.3898C89.3572 16.224 89.0175 16.0498 88.6833 15.8682C88.3989 15.7789 88.1173 15.6858 87.8348 15.5881C87.2043 15.3688 86.5839 15.1236 85.9783 14.8564C85.368 14.591 84.7734 14.3034 84.1881 13.9929C83.0203 13.3717 81.9032 12.6603 80.8442 11.8696C80.3162 11.4742 79.8038 11.0531 79.3052 10.6163C78.996 10.3444 78.6931 10.0652 78.3986 9.77673C78.7162 9.46616 79.0338 9.15283 79.3449 8.83582C79.512 8.66809 79.6773 8.49853 79.8416 8.32804C79.4926 7.90781 79.188 7.51799 78.9267 7.17609C78.7134 7.3733 78.5002 7.57143 78.2897 7.77233C77.8466 8.18888 77.4099 8.61096 76.9778 9.03856C76.8569 9.15837 76.7359 9.27724 76.6168 9.39704C76.7922 9.57951 76.9695 9.75738 77.1495 9.93339C77.6444 10.4181 78.1586 10.8826 78.6885 11.3213L78.6904 11.325V11.3268Z" fill="white"/>
<path d="M80.2755 7.96411C80.6725 8.52534 81.0962 9.06445 81.5394 9.58606C82.4247 10.6283 83.3978 11.5849 84.4447 12.453C84.9691 12.8862 85.5101 13.2944 86.0659 13.6815C86.6254 14.0648 87.1996 14.4252 87.7886 14.7606C88.373 15.0988 88.9796 15.4011 89.5935 15.6831C89.3008 15.4343 89.0193 15.1772 88.7432 14.9164C88.4921 14.7569 88.2438 14.5957 87.9973 14.4298C87.4461 14.0565 86.9116 13.6612 86.3936 13.2465C85.8739 12.8346 85.3726 12.4033 84.8897 11.9517C83.9231 11.0523 83.0285 10.0791 82.2142 9.04049C81.8071 8.52257 81.4203 7.98623 81.0547 7.43513C80.8266 7.09323 80.6078 6.74765 80.3964 6.39285C80.7851 6.17536 81.171 5.95326 81.556 5.72748C81.7628 5.60952 81.965 5.48695 82.1699 5.36715C81.9419 4.86951 81.7499 4.41794 81.5874 4.02075C81.3289 4.1553 81.0713 4.29261 80.8165 4.43269C80.2801 4.72021 79.7492 5.01696 79.2202 5.31739C79.0716 5.40217 78.9257 5.48511 78.7771 5.56989C78.898 5.79199 79.0236 6.00948 79.151 6.2242C79.5018 6.82045 79.8776 7.39919 80.2746 7.96042V7.96226L80.2755 7.96411Z" fill="white"/>
<path d="M86.2551 12.1637C84.5823 10.0293 83.3396 7.81299 82.4792 6.0224C82.0905 6.27491 81.7018 6.53018 81.3141 6.78269C82.674 8.83132 84.345 10.6449 86.2561 12.1628L86.2551 12.1637Z" fill="white"/>
<path d="M82.6879 5.12186C82.9261 5.76603 83.1929 6.39638 83.4856 7.01106C84.0681 8.24411 84.7596 9.42093 85.5425 10.525C85.9348 11.0761 86.3512 11.6124 86.787 12.1285C87.2274 12.6418 87.689 13.1376 88.17 13.614C88.6482 14.0905 89.1541 14.5384 89.6739 14.9687C89.4569 14.6536 89.2501 14.3329 89.0516 14.0094C88.8513 13.7919 88.6528 13.5698 88.458 13.3486C88.0213 12.8455 87.6077 12.3275 87.2172 11.793C86.8221 11.2631 86.4509 10.7157 86.1038 10.1563C85.404 9.03941 84.7965 7.86903 84.2786 6.65902C84.0201 6.05448 83.7875 5.43703 83.577 4.81129C83.4449 4.42423 83.324 4.03257 83.2132 3.6363C83.6453 3.52479 84.0755 3.41052 84.5066 3.29256C84.7365 3.23081 84.9636 3.1663 85.1935 3.10179C85.104 2.56268 85.0347 2.0761 84.983 1.64941C84.6987 1.71392 84.4153 1.78028 84.1309 1.85032C83.5373 1.99132 82.9464 2.14061 82.3574 2.29543C82.1921 2.33874 82.0278 2.38206 81.8625 2.42629C81.9235 2.67051 81.9853 2.91288 82.0527 3.15525C82.2365 3.82246 82.4479 4.47677 82.6861 5.12186H82.6879Z" fill="white"/>
<path d="M91.6587 0.354826C91.0512 0.319807 90.441 0.294928 89.8335 0.265438C89.2232 0.247007 88.6158 0.217516 88.0055 0.207379C87.3953 0.190791 86.7859 0.184338 86.1775 0.182495H85.6661C85.6596 0.43316 85.6578 0.685666 85.6596 0.936331C85.6642 1.62658 85.6975 2.31406 85.7575 2.99786C85.8184 3.68166 85.9117 4.35901 86.0335 5.02806C86.2754 6.36893 86.6355 7.68216 87.1026 8.95207C87.339 9.5861 87.5993 10.21 87.8883 10.821C88.1791 11.4301 88.4958 12.0264 88.8364 12.6107C89.1752 13.1949 89.5464 13.758 89.9387 14.31C90.3293 14.8611 90.7512 15.391 91.1943 15.9034C90.814 15.344 90.4567 14.7717 90.1206 14.1939C89.7846 13.6161 89.4753 13.0235 89.1845 12.4291C88.8937 11.8329 88.6305 11.2256 88.3923 10.6081C88.1505 9.99527 87.9326 9.37137 87.7424 8.74103C87.3583 7.48125 87.0758 6.1966 86.8921 4.89351C86.7998 4.24289 86.7379 3.58582 86.6955 2.9269C86.6705 2.51865 86.6558 2.10856 86.6511 1.69846C87.098 1.70307 87.543 1.70307 87.9898 1.69846C88.6001 1.69846 89.2075 1.67819 89.8178 1.66713C90.428 1.64685 91.0355 1.63395 91.6458 1.60723C91.9504 1.59525 92.256 1.58235 92.5588 1.57036C92.6991 1.56391 92.8404 1.55562 92.9807 1.55009C92.9955 1.89844 93.0204 2.24403 93.0555 2.58777C93.1118 3.11583 93.1912 3.63835 93.2956 4.15442C93.5042 5.18657 93.8135 6.19291 94.2142 7.15871C94.4163 7.64161 94.6407 8.11344 94.8826 8.5733C95.1309 9.03316 95.4005 9.47828 95.6885 9.91418C95.7365 9.98698 95.7864 10.0589 95.8372 10.1317C96.0043 10.374 96.3597 10.8422 96.3597 10.8422L96.4603 10.9666C96.4603 10.9666 96.5693 11.103 96.6228 11.1693C96.9524 11.573 97.3078 11.9591 97.6817 12.325C97.3688 11.9066 97.0761 11.4771 96.7982 11.0449C96.5204 10.61 96.2702 10.1648 96.0292 9.71512C95.791 9.26539 95.574 8.80554 95.3792 8.33923C95.1808 7.87476 95.0035 7.40292 94.8484 6.92647C94.5354 5.97174 94.3028 4.9958 94.1551 4.00513C94.0803 3.51025 94.0277 3.01076 93.9963 2.50944C93.963 2.00811 93.9547 1.50493 93.9667 1.00084C93.9704 0.833117 93.9787 0.665394 93.988 0.494905C93.819 0.484768 93.6473 0.474629 93.4784 0.46357C93.3463 0.455276 93.2152 0.446986 93.0832 0.438692C92.9097 0.428554 92.7361 0.418413 92.5653 0.405511C92.2606 0.388923 91.9578 0.372335 91.6522 0.353904H91.6541L91.6587 0.354826Z" fill="white"/>
<path d="M93.904 9.87629C93.3003 8.99159 92.2561 8.49672 91.3495 8.84046C90.4475 9.18236 90.0607 10.4007 90.5703 11.6144C90.5122 11.525 90.4558 11.4319 90.4078 11.3324C89.7357 10.021 90.1447 8.6202 91.1344 8.28475C92.1287 7.9447 93.2523 8.57228 93.7951 9.62747C93.8367 9.71041 93.8727 9.79335 93.9059 9.87629H93.904Z" fill="white"/>
<path d="M99.2134 15.261H99.2152C99.2845 12.4972 98.7139 10.4108 98.2505 9.13444C97.2608 6.41399 96.1991 5.8675 95.7421 5.68872C95.2408 5.49427 94.7746 5.46939 94.4468 5.48321C94.5078 5.73572 94.5742 5.98915 94.6453 6.23981C94.8207 6.81579 94.9943 7.39821 95.1651 7.98617C95.3654 8.67642 95.5621 9.36206 95.7495 10.0412C95.8603 10.5638 95.8621 11.0918 95.551 11.4337C95.5261 11.4623 95.4965 11.4853 95.467 11.5084C95.371 11.4236 95.2704 11.336 95.1642 11.2411C94.65 10.7932 94.1348 10.3481 93.6205 9.90025C93.05 9.3593 92.3105 9.12154 91.6901 9.32612C91.5839 9.36114 91.174 9.5003 90.9174 9.90025C90.6792 10.2735 90.7087 10.6569 90.7253 10.8578C90.765 11.3738 90.9654 11.7609 91.3042 12.1986C91.4648 12.406 91.7095 12.723 92.0077 13.11C92.3567 13.5662 92.5985 13.862 92.6576 13.9616C93.1626 14.7983 93.4156 15.7844 93.4156 16.9225C93.4156 18.9242 92.7389 20.5996 91.3836 21.9552C90.0283 23.308 88.3822 23.9854 86.4435 23.9854C84.9211 23.9854 83.684 23.4905 82.7358 22.4998C81.7858 21.5091 81.3113 20.2392 81.3113 18.6901C81.3113 18.1224 81.3676 17.5815 81.4784 17.0654C80.8266 16.8912 80.1859 16.6903 79.5544 16.4645C78.8565 16.2157 78.1825 15.9402 77.5492 15.648C77.0977 15.4407 76.6491 15.2167 76.2078 14.9827C75.7148 16.3171 75.4683 17.7593 75.4683 19.3085C75.4683 22.1533 76.4081 24.4775 78.2859 26.2819C80.1656 28.0863 82.637 28.9895 85.703 28.9895C89.4818 28.9895 92.6835 27.773 95.3156 25.341C97.9449 22.909 99.2614 19.8964 99.2614 16.3079C99.2614 15.9512 99.2448 15.6056 99.2152 15.2656L99.2115 15.2591L99.2134 15.261Z" fill="white"/>
</svg>
